<svg id="SvgjsSvg1024" width="288" height="288" xmlns="http://www.w3.org/2000/svg" version="1.1" xmlns:xlink="http://www.w3.org/1999/xlink" xmlns:svgjs="http://svgjs.com/svgjs"><defs id="SvgjsDefs1025"></defs><g id="SvgjsG1026" transform="matrix(0.9167,0,0,0.9167,11.994030309677129,11.993578806352616)"><svg xmlns="http://www.w3.org/2000/svg" enable-background="new 0 0 1024 1024" viewBox="0 0 1024 1024" width="288" height="288"><path d="M548.3,922c-14.8-14.8-29.7-29.7-44.5-44.5c-35.4-35.4-70.8-70.8-106.2-106.2c-43-43-86-86-129-129
				c-37-37-73.9-73.9-110.9-110.9c-18-18-35.7-36.2-54-54c-0.3-0.3-0.5-0.5-0.8-0.8c0,23.6,0,47.1,0,70.7
				c14.8-14.8,29.7-29.7,44.5-44.5c35.4-35.4,70.8-70.8,106.2-106.2c43-43,86-86,129-129c37-37,73.9-73.9,110.9-110.9
				c18-18,36.2-35.8,54-54c0.3-0.3,0.5-0.5,0.8-0.8c9.1-9.1,14.6-22.5,14.6-35.4c0-12.3-5.4-26.9-14.6-35.4
				c-9.5-8.7-22-15.2-35.4-14.6c-13.3,0.6-25.8,5.1-35.4,14.6c-14.8,14.8-29.7,29.7-44.5,44.5c-35.4,35.4-70.8,70.8-106.2,106.2
				c-43,43-86,86-129,129c-37,37-73.9,73.9-110.9,110.9c-18,18-36.2,35.8-54,54c-0.3,0.3-0.5,0.5-0.8,0.8
				c-19.1,19.1-19.1,51.6,0,70.7C47,562.2,61.9,577,76.7,591.9c35.4,35.4,70.8,70.8,106.2,106.2c43,43,86,86,129,129
				c37,37,73.9,73.9,110.9,110.9c18,18,35.8,36.2,54,54c0.3,0.3,0.5,0.5,0.8,0.8c9.1,9.1,22.5,14.6,35.4,14.6
				c12.3,0,26.9-5.4,35.4-14.6c8.7-9.5,15.2-22,14.6-35.4C562.3,944.1,557.9,931.6,548.3,922L548.3,922z" fill="#e8e1ef" class="color000 svgShape"></path><path d="M67.3,562c8,0,15.9,0,23.9,0c21.5,0,43.1,0,64.6,0c32,0,63.9,0,95.9,0c38.9,0,77.7,0,116.6,0
				c42.6,0,85.1,0,127.7,0c43.1,0,86.2,0,129.4,0c40.1,0,80.1,0,120.2,0c34,0,68,0,101.9,0c24.3,0,48.7,0,73,0
				c11.5,0,23.1,0.1,34.6,0c0.5,0,1,0,1.5,0c12.8,0,26.3-5.6,35.4-14.6c8.7-8.7,15.2-22.9,14.6-35.4c-0.6-12.9-4.8-26.3-14.6-35.4
				c-9.8-9-21.8-14.6-35.4-14.6c-8,0-15.9,0-23.9,0c-21.5,0-43.1,0-64.6,0c-32,0-63.9,0-95.9,0c-38.9,0-77.7,0-116.6,0
				c-42.6,0-85.1,0-127.7,0c-43.1,0-86.2,0-129.4,0c-40.1,0-80.1,0-120.2,0c-34,0-68,0-101.9,0c-24.3,0-48.7,0-73,0
				c-11.5,0-23.1-0.1-34.6,0c-0.5,0-1,0-1.5,0c-12.8,0-26.3,5.6-35.4,14.6c-8.7,8.7-15.2,22.9-14.6,35.4
				c0.6,12.9,4.8,26.3,14.6,35.4C41.8,556.3,53.8,562,67.3,562L67.3,562z" fill="#e8e1ef" class="color000 svgShape"></path></svg></g></svg>